<svg width="48" height="48" viewBox="0 0 48 48" fill="none" xmlns="http://www.w3.org/2000/svg" role="img" aria-label="CareerPilot AI logo">
  <rect x="3" y="3" width="42" height="42" rx="12" fill="#155EEF"/>
  <path d="M14.5 31.5C18.1 25.8 23.4 20.5 31.5 16.5" stroke="white" stroke-width="3" stroke-linecap="round"/>
  <path d="M20.5 17.2L32.6 14.8C33.2 14.7 33.7 15.2 33.5 15.8L29.9 27.5C29.7 28.2 28.9 28.4 28.4 27.9L24.9 24.4L20.2 29.1C19.6 29.7 18.7 29.7 18.1 29.1C17.5 28.5 17.5 27.6 18.1 27L22.8 22.3L19.8 19.3C19.3 18.8 19.6 17.4 20.5 17.2Z" fill="white"/>
  <circle cx="15" cy="32" r="3.25" fill="#9CC3FF" stroke="white" stroke-width="1.5"/>
  <circle cx="34" cy="14" r="2.6" fill="#DCE9FF"/>
</svg>
