<svg xmlns="http://www.w3.org/2000/svg" width="1000" height="724" viewBox="0 0 1000 724" font-family="Segoe UI, -apple-system, Helvetica, Arial, sans-serif">
  <defs>
    <marker id="ah" viewBox="0 0 10 10" refX="7" refY="5" markerWidth="3.2" markerHeight="3.2" orient="auto">
      <path d="M0 1 L8 5 L0 9 z" fill="#111111"/>
    </marker>
  </defs>

  <rect width="1000" height="724" fill="#FAF3E7"/>

  <!-- background doodles -->
  <text x="497" y="26" font-size="20" font-weight="700" fill="#111111" opacity="0.45">+</text>
  <text x="12" y="372" font-size="20" font-weight="700" fill="#111111" opacity="0.45">+</text>
  <text x="972" y="372" font-size="20" font-weight="700" fill="#111111" opacity="0.45">+</text>

  <!-- ============ 01 · INPUT (top-left) ============ -->
  <rect x="44" y="44" width="448" height="310" fill="#111111"/>
  <rect x="36" y="36" width="448" height="310" fill="#FFD166" stroke="#111111" stroke-width="3"/>
  <text x="64" y="104" font-size="44" font-weight="800" fill="#111111">01</text>
  <text x="132" y="102" font-size="20" font-weight="800" fill="#111111" letter-spacing="2">INPUT</text>
  <line x1="64" y1="124" x2="456" y2="124" stroke="#111111" stroke-width="3"/>
  <g transform="rotate(6 426 90)">
    <rect x="404" y="62" width="44" height="56" fill="#ffffff" stroke="#111111" stroke-width="3"/>
    <line x1="412" y1="78" x2="440" y2="78" stroke="#111111" stroke-width="2.5"/>
    <line x1="412" y1="88" x2="440" y2="88" stroke="#111111" stroke-width="2.5"/>
    <line x1="412" y1="98" x2="432" y2="98" stroke="#111111" stroke-width="2.5"/>
  </g>

  <!-- resume format chips -->
  <rect x="66" y="142" width="26" height="26" fill="#ffffff" stroke="#111111" stroke-width="2.5"/>
  <rect x="73" y="146" width="12" height="18" fill="none" stroke="#111111" stroke-width="1.8"/>
  <line x1="76" y1="152" x2="82" y2="152" stroke="#111111" stroke-width="1.5"/>
  <line x1="76" y1="156" x2="82" y2="156" stroke="#111111" stroke-width="1.5"/>
  <line x1="76" y1="160" x2="80" y2="160" stroke="#111111" stroke-width="1.5"/>
  <rect x="104" y="140" width="54" height="30" fill="#ffffff" stroke="#111111" stroke-width="2.5"/>
  <polygon points="147,140 158,151 147,151" fill="#111111"/>
  <text x="113" y="160" font-size="12.5" font-weight="700" fill="#111111" font-family="Consolas, Menlo, monospace">PDF</text>
  <rect x="166" y="140" width="66" height="30" fill="#ffffff" stroke="#111111" stroke-width="2.5"/>
  <polygon points="221,140 232,151 221,151" fill="#111111"/>
  <text x="175" y="160" font-size="12.5" font-weight="700" fill="#111111" font-family="Consolas, Menlo, monospace">DOCX</text>
  <rect x="240" y="140" width="52" height="30" fill="#ffffff" stroke="#111111" stroke-width="2.5"/>
  <polygon points="281,140 292,151 281,151" fill="#111111"/>
  <text x="249" y="160" font-size="12.5" font-weight="700" fill="#111111" font-family="Consolas, Menlo, monospace">TXT</text>

  <!-- job url row -->
  <rect x="66" y="182" width="26" height="26" fill="#ffffff" stroke="#111111" stroke-width="2.5"/>
  <circle cx="79" cy="195" r="8.5" fill="none" stroke="#111111" stroke-width="1.8"/>
  <ellipse cx="79" cy="195" rx="3.8" ry="8.5" fill="none" stroke="#111111" stroke-width="1.5"/>
  <line x1="70.5" y1="195" x2="87.5" y2="195" stroke="#111111" stroke-width="1.5"/>
  <text x="104" y="200" font-size="14.5" fill="#111111">Job URL or pasted job posting</text>

  <!-- company + tone row -->
  <rect x="66" y="222" width="26" height="26" fill="#ffffff" stroke="#111111" stroke-width="2.5"/>
  <path d="M71 236 L79 228 L87 236 L79 244 Z" fill="none" stroke="#111111" stroke-width="1.8"/>
  <circle cx="79" cy="234" r="1.8" fill="#111111"/>
  <text x="104" y="240" font-size="14.5" fill="#111111">Optional company name + writing tone</text>

  <rect x="66" y="262" width="300" height="28" fill="#ffffff" stroke="#111111" stroke-width="2"/>
  <text x="80" y="281" font-size="12.5" fill="#111111" font-family="Consolas, Menlo, monospace">POST /api/analyze-application</text>
  <text x="66" y="318" font-size="12.5" font-style="italic" fill="#111111" opacity="0.8">Rate-limited · parsed in memory, never saved</text>

  <!-- ============ 02 · GATHER CONTEXT (top-right) ============ -->
  <rect x="524" y="44" width="448" height="310" fill="#111111"/>
  <rect x="516" y="36" width="448" height="310" fill="#06D6A0" stroke="#111111" stroke-width="3"/>
  <text x="544" y="104" font-size="44" font-weight="800" fill="#111111">02</text>
  <text x="612" y="102" font-size="20" font-weight="800" fill="#111111" letter-spacing="2">GATHER CONTEXT</text>
  <line x1="544" y1="124" x2="936" y2="124" stroke="#111111" stroke-width="3"/>
  <circle cx="896" cy="76" r="18" fill="#ffffff" stroke="#111111" stroke-width="3.5"/>
  <line x1="909" y1="89" x2="925" y2="105" stroke="#111111" stroke-width="4.5" stroke-linecap="round"/>

  <!-- resume text row -->
  <rect x="546" y="146" width="26" height="26" fill="#ffffff" stroke="#111111" stroke-width="2.5"/>
  <rect x="553" y="150" width="12" height="18" fill="none" stroke="#111111" stroke-width="1.8"/>
  <line x1="556" y1="156" x2="562" y2="156" stroke="#111111" stroke-width="1.5"/>
  <line x1="556" y1="160" x2="562" y2="160" stroke="#111111" stroke-width="1.5"/>
  <line x1="556" y1="164" x2="560" y2="164" stroke="#111111" stroke-width="1.5"/>
  <text x="584" y="164" font-size="14.5" fill="#111111">Pull plain text out of the resume</text>

  <!-- ssrf shield row -->
  <rect x="546" y="188" width="26" height="26" fill="#ffffff" stroke="#111111" stroke-width="2.5"/>
  <path d="M559 191 L567 194 L567 201 Q567 208 559 211 Q551 208 551 201 L551 194 Z" fill="none" stroke="#111111" stroke-width="1.8"/>
  <polyline points="555,201 558,204 564,197" fill="none" stroke="#111111" stroke-width="1.8"/>
  <text x="584" y="206" font-size="14.5" fill="#111111">Fetch the job page — SSRF-safe</text>

  <!-- search snippets row -->
  <rect x="546" y="230" width="26" height="26" fill="#ffffff" stroke="#111111" stroke-width="2.5"/>
  <rect x="551" y="238" width="13" height="12" fill="#ffffff" stroke="#111111" stroke-width="1.8"/>
  <rect x="556" y="234" width="13" height="12" fill="#ffffff" stroke="#111111" stroke-width="1.8"/>
  <text x="584" y="248" font-size="14.5" fill="#111111">Company snippets via Brave Search</text>

  <text x="546" y="300" font-size="12.5" font-style="italic" fill="#111111" opacity="0.8">Fallbacks: manual paste · research warning</text>

  <!-- ============ 03 · GENERATE (bottom-right) ============ -->
  <rect x="524" y="386" width="448" height="310" fill="#111111"/>
  <rect x="516" y="378" width="448" height="310" fill="#8ECAE6" stroke="#111111" stroke-width="3"/>
  <text x="544" y="446" font-size="44" font-weight="800" fill="#111111">03</text>
  <text x="612" y="444" font-size="20" font-weight="800" fill="#111111" letter-spacing="2">GENERATE</text>
  <line x1="544" y1="466" x2="936" y2="466" stroke="#111111" stroke-width="3"/>
  <path d="M900 396 L908 418 L930 428 L908 438 L900 460 L892 438 L870 428 L892 418 Z" fill="#ffffff" stroke="#111111" stroke-width="3"/>

  <!-- prompt bubble row -->
  <rect x="546" y="488" width="26" height="26" fill="#ffffff" stroke="#111111" stroke-width="2.5"/>
  <rect x="550" y="492" width="18" height="13" rx="2" fill="#ffffff" stroke="#111111" stroke-width="1.8"/>
  <path d="M554 505 L554 511 L560 505" fill="#ffffff" stroke="#111111" stroke-width="1.8"/>
  <circle cx="555" cy="498.5" r="1.5" fill="#111111"/>
  <circle cx="559" cy="498.5" r="1.5" fill="#111111"/>
  <circle cx="563" cy="498.5" r="1.5" fill="#111111"/>
  <text x="584" y="506" font-size="14.5" fill="#111111">Resume + job + research in one prompt</text>

  <!-- robot row -->
  <rect x="546" y="530" width="26" height="26" fill="#ffffff" stroke="#111111" stroke-width="2.5"/>
  <rect x="552" y="539" width="14" height="11" fill="none" stroke="#111111" stroke-width="1.8"/>
  <circle cx="556" cy="544.5" r="1.6" fill="#111111"/>
  <circle cx="562" cy="544.5" r="1.6" fill="#111111"/>
  <line x1="559" y1="539" x2="559" y2="535" stroke="#111111" stroke-width="1.8"/>
  <circle cx="559" cy="533.5" r="1.6" fill="#111111"/>
  <text x="584" y="548" font-size="14.5" fill="#111111">OpenAI-compatible chat-completions API</text>

  <!-- validated row -->
  <rect x="546" y="572" width="26" height="26" fill="#ffffff" stroke="#111111" stroke-width="2.5"/>
  <polyline points="553,585 558,590 566,578" fill="none" stroke="#111111" stroke-width="2.5"/>
  <text x="584" y="590" font-size="14.5" fill="#111111">Strict JSON — validated &amp; normalized</text>

  <text x="546" y="642" font-size="12.5" font-style="italic" fill="#111111" opacity="0.8">Prompt rules forbid invented resume facts</text>

  <!-- ============ 04 · DELIVER (bottom-left) ============ -->
  <rect x="44" y="386" width="448" height="310" fill="#111111"/>
  <rect x="36" y="378" width="448" height="310" fill="#FFB3C6" stroke="#111111" stroke-width="3"/>
  <text x="64" y="446" font-size="44" font-weight="800" fill="#111111">04</text>
  <text x="132" y="444" font-size="20" font-weight="800" fill="#111111" letter-spacing="2">DELIVER</text>
  <line x1="64" y1="466" x2="456" y2="466" stroke="#111111" stroke-width="3"/>
  <g transform="rotate(-5 423 425)">
    <rect x="396" y="406" width="54" height="38" fill="#ffffff" stroke="#111111" stroke-width="3"/>
    <path d="M396 408 L423 432 L450 408" fill="none" stroke="#111111" stroke-width="3"/>
  </g>

  <!-- fit score gauge row -->
  <rect x="66" y="488" width="26" height="26" fill="#ffffff" stroke="#111111" stroke-width="2.5"/>
  <path d="M71 506 A 8 8 0 0 1 87 506" fill="none" stroke="#111111" stroke-width="1.8"/>
  <line x1="79" y1="506" x2="84" y2="499" stroke="#111111" stroke-width="1.8"/>
  <circle cx="79" cy="506" r="1.6" fill="#111111"/>
  <text x="104" y="506" font-size="14.5" fill="#111111">Fit score with matches &amp; gaps</text>

  <!-- resume fixes row -->
  <rect x="66" y="524" width="26" height="26" fill="#ffffff" stroke="#111111" stroke-width="2.5"/>
  <path d="M72 544 L74 538 L83 529 L87 533 L78 542 Z" fill="#ffffff" stroke="#111111" stroke-width="1.8"/>
  <text x="104" y="542" font-size="14.5" fill="#111111">Targeted resume fixes</text>

  <!-- letters row -->
  <rect x="66" y="560" width="26" height="26" fill="#ffffff" stroke="#111111" stroke-width="2.5"/>
  <rect x="70" y="567" width="18" height="12" fill="#ffffff" stroke="#111111" stroke-width="1.8"/>
  <path d="M70 568 L79 575 L88 568" fill="none" stroke="#111111" stroke-width="1.5"/>
  <text x="104" y="578" font-size="14.5" fill="#111111">Cover letter + application email</text>

  <!-- strategy row -->
  <rect x="66" y="596" width="26" height="26" fill="#ffffff" stroke="#111111" stroke-width="2.5"/>
  <rect x="72" y="601" width="14" height="17" fill="#ffffff" stroke="#111111" stroke-width="1.8"/>
  <rect x="76" y="598" width="6" height="5" fill="#111111"/>
  <line x1="75" y1="608" x2="83" y2="608" stroke="#111111" stroke-width="1.5"/>
  <line x1="75" y1="612" x2="83" y2="612" stroke="#111111" stroke-width="1.5"/>
  <text x="104" y="614" font-size="14.5" fill="#111111">Application strategy notes</text>

  <text x="66" y="660" font-size="12.5" font-style="italic" fill="#111111" opacity="0.8">Saved in your browser only — server stores nothing</text>

  <!-- flow arrows -->
  <line x1="456" y1="123" x2="526" y2="123" stroke="#111111" stroke-width="5" marker-end="url(#ah)"/>
  <line x1="740" y1="330" x2="740" y2="400" stroke="#111111" stroke-width="5" marker-end="url(#ah)"/>
  <line x1="544" y1="465" x2="474" y2="465" stroke="#111111" stroke-width="5" marker-end="url(#ah)"/>

  <!-- center badge -->
  <g transform="rotate(-7 500 362)">
    <rect x="419" y="343" width="172" height="48" fill="#111111"/>
    <rect x="414" y="338" width="172" height="48" fill="#ffffff" stroke="#111111" stroke-width="3"/>
    <text x="500" y="368" text-anchor="middle" font-size="17" font-weight="800" fill="#111111">CareerPilot AI</text>
  </g>

  <!-- footer caption -->
  <text x="500" y="714" text-anchor="middle" font-size="11.5" fill="#111111" opacity="0.55">zero-dependency Node.js server · deployed on Vercel</text>
</svg>
